<svg xmlns="http://www.w3.org/2000/svg" width="32" height="32" viewBox="0 0 32 32" fill="none">
  <rect width="32" height="32" rx="4" fill="#ffffff"/>
  <path d="M6 10C6 8.89543 6.89543 8 8 8H24C25.1046 8 26 8.89543 26 10V22C26 23.1046 25.1046 24 24 24H8C6.89543 24 6 23.1046 6 22V10Z" fill="#D4A373"/>
  <path d="M8 12H24V20H8V12Z" fill="#CCD5AE"/>
  <path d="M10 14H14V18H10V14Z" fill="#A3B18A"/>
  <path d="M16 11L18 8M20 11L22 8" stroke="#FEFAE0" strokeWidth="1.5"/>
  <path d="M22 16L24 14M22 18L24 20" stroke="#FAEDCD" strokeWidth="1.5"/>
</svg> 